<?xml version="1.0" encoding="UTF-8" standalone="no"?>
<!DOCTYPE svg PUBLIC "-//W3C//DTD SVG 1.1//EN" "http://www.w3.org/Graphics/SVG/1.1/DTD/svg11.dtd">
<svg width="100%" height="100%" viewBox="0 0 1783 3107" version="1.1" xmlns="http://www.w3.org/2000/svg" xmlns:xlink="http://www.w3.org/1999/xlink" xml:space="preserve" style="fill-rule:evenodd;clip-rule:evenodd;stroke-linecap:square;stroke-miterlimit:2;">
    <g id="Logo_mit_Slogan">
        <g id="LOGO">
            <path id="Baum"
                  d="M971.973,2510.48c-6.104,-2.169 -12.045,-4.839 -17.724,-8.334c-10.372,-6.386 -19.822,-13.653 -28.354,-21.788l10.425,-30.667l-35.696,0c-2.596,-4.038 -5.045,-8.214 -7.347,-12.525c-2.19,-4.098 -4.103,-8.337 -6.447,-13.119c-15.864,20.623 -36.534,34.964 -56.042,50.562c-13.215,10.568 -21.938,22.867 -23.498,38.642l-4.405,-13.935c4.183,-17.805 13.971,-33.387 31.387,-46.032c10.485,-7.617 20.127,-16.52 29.444,-25.565c3.985,-3.867 6.364,-9.5 9.104,-14.53c3.861,-7.085 5.644,-14.382 2.32,-22.453c-1.659,-4.027 -2.061,-8.585 -3.371,-14.442c-2.574,2.38 -4.517,4.133 -6.412,5.946c-24.965,23.827 -48.526,49.135 -78.343,67.451l-45.665,0l8.823,26.006c-2.88,2.339 -5.743,4.694 -8.6,7.036c-12.759,10.462 -22.755,23.469 -25.305,40.313c-1.512,10.014 -1.163,20.311 -1.376,30.483c-0.024,1.47 1.163,3.49 2.415,4.375c11.436,8.13 23.044,16.006 34.533,24.059c13.68,9.595 28.127,18.315 40.744,29.161c1.816,1.56 3.54,3.172 5.174,4.833l16.249,47.894l6.694,0c0.48,3.354 0.802,6.772 0.972,10.246c0.957,19.342 0.384,38.772 1.854,58.055c0.868,11.33 4.476,22.447 6.719,33.688c0.697,3.519 0.98,7.115 1.453,10.681l-1.961,1.228c-2.456,-2.976 -6.299,-5.621 -7.12,-8.992c-2.946,-12.086 -5.904,-24.331 -6.925,-36.67c-1.335,-16.148 -0.88,-32.443 -1.099,-48.674c-0.183,-13.756 -3.831,-27.04 -12.168,-37.39c-6.642,-8.236 -16.378,-14.512 -25.748,-19.903c-16.224,-9.334 -33.234,-17.311 -50.261,-26.049c-0,1.193 -0.325,2.474 0.041,3.513c11.076,31.54 22.825,62.849 33.187,94.613c10.362,31.794 20.493,64.001 17.925,98.02c-0.945,12.481 -5.692,24.756 -9.275,36.96c-5.007,17.033 -11.419,33.854 -8.39,52.074c3.064,18.361 15.244,30.093 30.725,38.317c32.496,17.276 65.399,33.795 98.025,50.829c22.926,11.961 40.514,29.555 52.216,52.564c8.75,17.204 8.573,35.666 5.892,54.182c-0.785,0.147 -1.564,0.301 -2.349,0.46c-1.287,-5.443 -3.543,-10.852 -3.69,-16.325c-0.455,-16.785 -8.715,-29.68 -18.775,-42.096c-12.305,-15.191 -28.21,-25.452 -45.214,-34.356c-7.64,-4.003 -15.233,-8.077 -22.926,-11.973c-1.788,-0.91 -3.961,-1.925 -5.809,-1.701c-10.692,1.287 -18.273,-4.776 -26.291,-10.267c-10.244,-7.002 -20.777,-13.585 -33.193,-21.662c1.948,22.884 -9.163,39.918 -14.17,58.598c-1.452,5.414 -0.496,8.697 3.383,12.316c13.68,12.806 25.5,27.023 31.351,45.261c3.92,12.215 2.751,24.413 -1.689,36.168c-1.121,2.994 -4.723,5.054 -7.988,8.349c-0.531,-2.58 -0.868,-3.189 -0.685,-3.496c9.258,-15.61 6.105,-30.063 -4.363,-43.601c-5.739,-7.422 -11.235,-15.315 -18.202,-21.45c-11.767,-10.379 -14.619,-23.179 -12.7,-37.585c2.025,-15.256 4.806,-30.424 7.309,-45.609c1.837,-11.112 0.922,-20.682 -9.257,-28.523c-7.002,-5.396 -12.068,-13.308 -17.996,-20.086c-7.067,7.392 -14.713,16.272 -23.297,24.124c-8.839,8.089 -18.061,16.006 -28.086,22.495c-14.388,9.305 -22.276,23.274 -29.763,37.644c-1.641,3.153 -1.033,7.67 -0.897,11.537c0.484,14.052 -1.364,27.572 -7.374,40.484c-4.741,10.167 -12.446,17.382 -21.769,22.985c-6.093,3.666 -12.558,4.735 -20.31,-0.838c7.882,-6.702 14.69,-13.603 22.56,-18.941c13.508,-9.169 20.912,-20.912 19.519,-37.532c-1.087,-12.93 0.419,-25.411 7.462,-36.818c-10.952,-1.317 -19.448,2.22 -28.339,6.465c-25.99,12.416 -53.161,21.591 -81.754,26.155c-8.892,1.417 -16.508,-0.921 -23.717,-7.108c8.85,-9.524 20.912,-10.545 32.29,-13.887c24.431,-7.173 49.234,-13.857 72.573,-23.817c35.418,-15.103 65.606,-38.01 87.351,-70.518c10.964,-16.384 19.424,-33.394 17.866,-54.584c-1.589,-21.591 1.31,-43.548 -0.727,-65.063c-3.152,-33.287 -9.033,-66.285 -23.067,-97.163c-0.801,-1.76 -1.581,-3.53 -2.371,-5.334l20.991,0l-71.422,-113.247c-0.136,-1.077 -0.264,-2.158 -0.382,-3.244c-0.36,0.311 -0.718,0.622 -1.076,0.932l-2.413,-3.826l74.707,-94.775l-50.39,0l-2.78,3.489c8.845,-13.73 19.856,-26.077 32.349,-37.352c23.941,-21.597 45.267,-44.824 59.443,-74.12c12.729,-26.308 27.43,-51.79 38.359,-78.814c11.099,-27.442 14.264,-57.098 16.236,-85.904c-16.921,7.221 -33.872,14.4 -50.752,21.727c-1.57,0.679 -2.969,2.102 -4.05,3.495c-11.826,15.25 -22.542,31.504 -35.602,45.609c-16.383,17.689 -20.64,37.379 -15.947,60.104c0.981,4.741 1.382,9.594 2.167,15.203c-7.527,-2.415 -9.405,-7.888 -10.226,-13.538c-4.316,-29.78 1.754,-56.567 23.038,-79.003c6.625,-6.972 12.635,-14.536 19.891,-22.949c-2.503,0 -3.631,-0.224 -4.635,0.036c-30.849,7.822 -61.792,15.315 -92.493,23.693c-18.663,5.089 -34.557,15.87 -49.087,28.292c-26.273,22.453 -42.462,51.507 -51.289,84.423c-9.116,34.001 -16.33,68.511 -25.169,102.595c-7.486,28.895 -17.612,56.898 -34.078,82.114c-8.656,13.261 -21.125,22.477 -34.882,29.733c-6.813,3.602 -14.075,2.226 -21.839,-2.798c6.335,-4.859 11.49,-10.433 17.86,-13.409c28.718,-13.39 43.696,-37.638 54.56,-65.753c8.785,-22.737 13.201,-46.194 12.835,-70.466c-0.384,-25.688 1.217,-51.1 8.992,-76.611c-28.133,5.048 -57.264,4.363 -76.57,28.493c-9.092,11.365 -16.549,24.089 -24.266,36.499c-11.849,19.047 -25.128,36.706 -44.446,48.862c-4.416,2.781 -9.181,5.001 -13.833,7.392c-7.427,3.814 -14.164,1.724 -22.442,-3.418c8.207,-5.574 15.068,-11.785 23.097,-15.416c29.066,-13.166 46.708,-37.007 61.497,-63.652c12.918,-23.274 28.6,-43.377 55.942,-50.409c7.055,-1.819 14.411,-2.468 21.626,-3.649c3.867,-0.632 7.811,-0.962 11.596,-1.907c8.313,-2.078 14.465,-5.709 18.379,-14.754c7.623,-17.606 17.299,-34.332 26.569,-52.299c-9.104,1.252 -18.439,2.823 -27.838,3.755c-29.532,2.929 -58.445,8.467 -85.58,20.901c-38.241,17.529 -67.897,45.036 -92.871,78.648c-35.903,48.314 -62.95,101.622 -90.557,154.711c-9.872,18.982 -21.78,36.913 -31.475,55.971c-3.46,6.801 -3.725,15.469 -4.41,23.374c-2.214,25.494 3.277,49.73 15.74,71.77c6.601,11.667 17.252,20.984 24.567,32.337c22.577,35.023 52.287,66.551 56.254,111.021c1.943,21.703 2.238,43.407 -4.239,64.431c-1.919,6.229 -6.837,11.525 -10.373,17.246c-0.998,-0.508 -1.996,-1.022 -2.988,-1.535c1.748,-5.833 3.058,-11.85 5.326,-17.47c8.065,-19.956 6.96,-40.266 3.418,-60.878c-4.824,-28.115 -19.436,-51.029 -37.751,-71.959c-16.962,-19.389 -34.22,-38.512 -52.647,-59.2c-9.163,13.574 -18.751,26.256 -26.497,39.977c-3.513,6.211 -4.847,14.541 -4.605,21.827c0.797,24.301 2.81,48.555 4.239,72.833c1.145,19.448 -1.317,38.099 -12.228,54.943c-4.008,6.2 -8.531,10.539 -17.842,8.178c4.245,-6.542 7.847,-12.972 12.293,-18.775c12.05,-15.705 11.105,-33.5 9.629,-51.75c-1.753,-21.626 -3.418,-43.312 -3.643,-64.998c-0.253,-24.372 10.899,-44.788 25.642,-63.439c2.102,-2.657 4.239,-5.285 6.618,-8.242c-12.115,-18.787 -16.065,-39.894 -16.921,-63.511c-7.687,7.333 -14.199,13.515 -20.67,19.744c-32.709,31.433 -71.386,49.429 -116.931,52.003c-17.482,0.986 -34.958,2.172 -52.452,2.899c-8.454,0.342 -15.758,-2.858 -22.931,-10.758c7.882,-3.17 14.701,-7.185 22.022,-8.596c21.704,-4.186 43.685,-6.92 65.412,-11.017c32.543,-6.128 61.509,-19.991 86.158,-42.338c7.522,-6.819 14.719,-13.993 21.343,-22.253c-1.96,0.732 -3.944,1.411 -5.88,2.208c-23.74,9.783 -46.973,5.249 -69.485,-3.713c-25.937,-10.327 -51.508,-12.423 -77.568,-1.116c-4.428,1.925 -9.14,3.194 -15.587,5.408c5.443,-12.93 10.444,-22.796 22.937,-27.188c23.888,-8.414 47.274,-7.062 70.277,2.532c17.387,7.245 35.212,12.553 54.052,9.766c24.449,-3.619 40.147,-20.328 55.156,-38.43c21.024,-25.346 29.969,-56.585 43.554,-85.527c19.519,-41.576 36.83,-84.227 57.506,-125.19c8.526,-16.886 23.02,-30.861 35.371,-45.68c24.278,-29.16 55.192,-49.199 89.814,-63.959c2.597,-1.104 5.042,-2.562 9.546,-4.883c-15.527,-7.167 -29.367,-13.555 -42.68,-19.696c-7.811,11.856 -14.66,23.192 -22.448,33.849c-10.037,13.721 -23.533,22.205 -40.254,26.71c-18.09,4.876 -35.826,11.241 -53.396,17.8c-19.189,7.162 -35.549,18.368 -46.371,37.822c-2.267,-10.976 -1.004,-20.269 5.845,-27.962c11.814,-13.254 25.588,-23.911 42.722,-29.597c17.045,-5.65 33.76,-12.877 51.218,-16.567c26.167,-5.526 35.566,-24.608 43.507,-46.979c-19.442,-5.626 -38.429,-8.313 -58.244,-8.307c-40.626,0.006 -72.762,20.145 -104.679,41.353c-15.67,10.408 -30.725,21.78 -46.696,31.669c-18.291,11.342 -28.144,28.281 -33.936,47.941c-5.586,18.958 -15.404,34.728 -31.156,46.649c-8.012,6.063 -13.733,5.461 -21.981,-2.155c25.045,-15.877 46.855,-34.303 50.934,-66.669c-7.197,3.636 -14.27,7.267 -21.384,10.804c-24.738,12.281 -50.533,19.466 -78.525,17.27c-11.395,-0.886 -21.367,-5.072 -30.335,-11.561c-6.754,-4.882 -11.029,-11.784 -11.714,-22.111c5.668,1.6 11.301,2.085 15.758,4.641c21.19,12.133 43.39,11.253 66.256,6.837c29.007,-5.603 53.603,-20.068 76.972,-37.143c25.948,-18.958 51.69,-38.199 77.763,-56.98c7.356,-5.296 15.557,-9.405 23.421,-14.099c-6.176,-10.492 -11.412,-21.373 -18.651,-30.701c-2.852,-3.667 -10.108,-5.084 -15.492,-5.414c-22.518,-1.352 -44.21,3.471 -65.116,11.418c-16.378,6.229 -33.075,7.203 -50.191,5.432c-20.611,-2.137 -35.679,-17.541 -38.483,-41.14c4.363,2.285 8.437,3.401 11.123,5.975c21.993,21.031 47.629,20.31 74.014,11.997c20.729,-6.53 41.34,-12.351 63.256,-13.833c25.199,-1.7 53.958,20.003 55.658,44.971c0.083,1.205 0.667,2.368 1.364,4.724c12.712,-4.487 24.709,-9.606 37.178,-12.977c59.602,-16.148 116.346,-10.504 167.824,25.488c12.192,8.519 22.123,9.977 36.298,5.089c22.826,-7.864 46.796,-12.446 70.277,-18.415c2.497,-0.638 4.977,-1.328 8.39,-2.244c-18.079,-15.362 -27.177,-39.911 -54.625,-42.804c12.676,-15.924 21.213,-16.65 33.576,-3.785c7.392,7.699 13.509,16.662 21.173,24.048c12.369,11.914 31.374,14.382 46.382,6.01c15.699,-8.762 31.422,-17.689 46.111,-28.003c16.685,-11.732 27.625,-29.243 30.813,-48.614c2.634,-15.983 -0.023,-33.376 -3.028,-49.648c-6.353,-34.356 -22.223,-65.051 -40.284,-94.643c-18.61,-30.488 -41.388,-57.381 -66.327,-83.052c-37.609,-38.725 -80.348,-70.808 -123.395,-102.761c-18.887,-14.016 -38.719,-27.082 -55.959,-42.929c-39.764,-36.534 -75.531,-76.387 -102.371,-124.068c-29.509,-52.417 -47.829,-108.376 -57.937,-167.127c-5.26,-30.572 -9.877,-61.616 -10.527,-92.535c-1.346,-64.745 8.821,-127.836 32.62,-188.695c17.683,-45.22 39.522,-88.13 63.936,-129.943c20.292,-34.752 39.026,-70.353 50.916,-109.025c3.75,-12.198 5.999,-24.851 8.957,-37.29c0.832,-3.502 1.742,-6.979 2.621,-10.474c0.815,0.035 1.63,0.065 2.445,0.088c-0,7.965 1.181,16.13 -0.219,23.835c-4.044,22.312 -9.452,44.369 -13.721,66.645c-6.612,34.469 -22.17,65.63 -35.312,97.695c-1.063,2.604 -2.049,5.243 -3.064,7.865c0.614,0.413 1.228,0.826 1.836,1.24c15.557,-20.759 31.061,-41.559 46.689,-62.265c15.652,-20.747 31.428,-41.405 47.841,-63.008c0.874,2.267 2.563,4.634 2.521,6.966c-0.088,4.369 -0.313,9.087 -2.001,13.007c-9.081,21.078 -17.258,42.728 -28.446,62.654c-9.394,16.727 -22.542,31.333 -33.943,46.944c-4.617,6.317 -9.588,12.475 -13.396,19.271c-8.679,15.504 -22.725,25.777 -35.2,37.615c-0.189,0.183 -0.396,0.407 -0.632,0.454c-13.29,2.805 -14.347,14.483 -16.803,24.378c-15.469,62.371 -21.249,125.698 -17.299,189.846c0.525,8.585 2.279,17.099 3.595,25.624c0.715,4.629 1.701,9.211 2.893,15.546c3.803,-6.637 6.377,-12.234 9.931,-17.116c14.731,-20.257 29.792,-40.284 44.641,-60.458c1.464,-1.996 3.1,-4.322 3.395,-6.654c2.952,-23.286 -0.319,-45.81 -8.892,-67.626c-6.358,-16.165 -11.631,-32.626 -9.452,-50.332c0.661,-5.349 2.698,-10.527 4.103,-15.788c1.128,0.03 2.261,0.054 3.389,0.077c1.352,4.239 2.633,8.496 4.068,12.7c4.706,13.751 8.679,27.826 14.447,41.116c4.883,11.253 8.579,22.199 7.646,34.675c-0.703,9.505 -0.142,19.099 0.738,28.829c14.512,-20.079 27.661,-40.449 31.41,-65.541c4.93,-33.021 10.291,-65.978 15.782,-98.905c0.743,-4.47 3.312,-8.638 6.866,-12.594c14.943,42.067 6.683,83.655 -0.437,123.484c9.411,-5.591 19.419,-12.262 30.052,-17.718c20.646,-10.604 34.12,-27.041 41.937,-48.555c0.85,-2.332 2.107,-4.511 3.17,-6.76c1.051,0.088 2.096,0.177 3.141,0.271c0.053,4.73 1.27,9.819 -0.041,14.141c-5.184,17.092 -12.47,33.44 -24.301,46.955c-5.716,6.518 -13.072,12.139 -20.682,16.354c-19.425,10.763 -35.815,24.048 -46.241,44.281c-4.287,8.313 -10.811,15.475 -16.325,23.168c0.525,0.454 1.045,0.915 1.57,1.375c12.216,-7.551 24.437,-15.102 38.507,-23.799c-1.553,13.201 -6.034,21.898 -14.837,27.832c-11.696,7.882 -23.428,15.77 -35.69,22.701c-14.607,8.254 -21.851,22.867 -32.018,34.917c-14.873,17.629 -25.223,37.556 -30.152,60.375c-3.891,18.031 -1.884,34.185 6.588,51.1c19.224,38.341 42.563,73.677 70.365,106.203c0.473,0.549 1.234,0.856 2.988,2.031c1.5,-12.157 2.928,-23.611 4.31,-35.071c0.189,-1.552 -0.248,-3.27 0.254,-4.687c3.347,-9.352 1.281,-17.778 -3.791,-25.908c-1.039,-1.659 -1.151,-3.89 -1.783,-6.199c7.87,-1.553 13.22,1.931 15.31,8.236c2.674,8.054 4.587,16.62 5.118,25.075c1.158,18.492 1.205,37.054 1.819,55.581c0.059,1.689 0.437,3.885 1.541,4.936c8.272,7.9 16.756,15.575 27.218,25.193c-0,-5.279 0.1,-8.207 -0.018,-11.118c-0.797,-20.032 4.157,-38.807 11.962,-57.063c1.204,-2.804 1.198,-6.471 0.732,-9.588c-2.852,-19.271 -13.048,-34.303 -25.069,-49.476c-9.376,-11.826 -21.721,-16.213 -33.405,-23.038c-11.041,-6.441 -22.034,-13.013 -32.733,-20.003c-10.739,-7.014 -16.803,-18.793 -17.588,-33.459c17.594,11.868 34.639,23.357 51.685,34.852c0.655,-0.537 1.316,-1.068 1.977,-1.6c-10.798,-24.797 -18.438,-50.131 -13.939,-77.709c8.384,21.302 8.39,45.467 21.721,64.98c12.889,18.852 26.025,37.532 40.608,55.676c-16.726,-38.619 -26.686,-78.041 -21.768,-119.989c0.856,-0.201 1.718,-0.402 2.58,-0.602c1.022,4.569 2.675,9.098 2.958,13.709c1.83,29.444 8.036,57.388 20.133,84.783c7.038,15.958 6.955,35.076 9.942,52.794c0.42,2.509 0.06,5.154 0.06,10.019c9.665,-15.705 15.486,-30.453 17.741,-46.489c6.985,-49.712 4.493,-99.047 -5.248,-148.24c-2.043,-10.314 -1.04,-21.272 -0.921,-31.935c0.029,-2.763 2.013,-5.508 3.105,-8.265c0.892,-0.166 1.777,-0.343 2.669,-0.508c4.859,9.364 9.712,18.733 14.801,28.558c5.574,-28.05 14.613,-54.276 23.882,-80.508c3.224,-9.14 2.799,-19.549 4.204,-29.355c0.567,-3.927 1.594,-7.788 2.409,-11.679c0.921,-0.041 1.848,-0.077 2.775,-0.112c0.738,2.698 2.013,5.373 2.137,8.095c1.016,22.813 -2.06,45.148 -12.009,65.73c-10.19,21.083 -13.538,42.592 -12.983,66.002c0.508,21.201 5.951,41.328 8.331,62.052c4.292,37.302 2.905,74.208 -4.83,110.873c-5.012,23.764 -10.55,47.409 -15.835,71.114c-0.543,2.462 -0.926,4.96 -0.72,7.894c5.656,-14.736 19.242,-20.103 30.914,-27.849c12.233,-8.124 20.564,-19.885 27.667,-32.556c1.824,-3.259 3.955,-6.352 5.945,-9.517c1.086,0.236 2.179,0.472 3.265,0.703c-0.248,5.603 0.419,11.436 -0.921,16.761c-3.501,13.869 -11.572,25.323 -22.595,34.102c-9.429,7.516 -16.738,18.439 -30.005,20.446c-0.891,0.13 -1.889,1.069 -2.42,1.895c-7.121,11.141 -17.825,20.913 -14.158,36.281c0.242,1.01 0.454,2.102 0.324,3.112c-2.349,18.651 9.524,28.605 22.619,38.376c21.574,16.101 42.757,32.721 63.929,49.347c3.401,2.668 5.91,6.47 9.902,10.958c13.916,-19.868 28.54,-38.536 40.578,-58.746c7.646,-12.842 11.702,-27.879 16.762,-42.15c1.169,-3.288 0.909,-7.911 -0.49,-11.146c-5.786,-13.42 -11.979,-26.681 -18.527,-39.747c-15.427,-30.813 -30.093,-61.792 -40.343,-94.943c-4.764,-15.404 -14.825,-29.196 -22.671,-43.608c-9.488,-17.417 -19.702,-34.468 -28.482,-52.228c-2.775,-5.62 -2.798,-13.042 -2.538,-19.578c0.23,-5.88 5.313,-7.279 8.466,-2.739c5.999,8.626 12.706,17.641 15.363,27.501c4.51,16.732 11.335,31.788 23.746,45.279c-0.898,-13.273 0.047,-27.006 -3.135,-39.711c-4.405,-17.577 -11.679,-34.463 -18.197,-51.466c-3.141,-8.189 -4.924,-15.811 2.132,-24.555c15.598,16.903 20.239,37.626 25.559,59.265c5.567,-18.946 2.007,-38.4 7.769,-56.248c1.028,-0.024 2.067,-0.042 3.1,-0.065c0.549,3.831 1.824,7.722 1.541,11.489c-1.919,25.824 -4.93,51.59 -5.969,77.438c-0.514,12.818 2.314,25.783 3.802,38.66c0.874,7.522 2.32,14.979 3.135,22.512c2.321,21.479 15.067,37.657 27.997,53.35c8.496,10.308 18.935,19.017 28.505,28.434c0.75,-0.402 1.5,-0.809 2.256,-1.216c0.289,-2.457 0.667,-4.907 0.856,-7.375c2.627,-33.942 -1.754,-67.324 -8.29,-100.499c-6.648,-33.712 -9.895,-67.809 -10.048,-102.082c-0.059,-13.461 -6.005,-22.666 -14.572,-31.475c-6.713,-6.901 -13.402,-13.845 -19.702,-21.118c-8.336,-9.624 -16.141,-19.708 -24.437,-29.373c-11.082,-12.918 -16.637,-27.608 -15.309,-44.665c10.486,12.777 20.009,26.657 31.829,38.17c12.062,11.749 26.385,21.172 40.118,31.929c0,-1.771 0.473,-4.002 -0.065,-5.957c-13.396,-48.159 -37.006,-90.102 -74.722,-123.673c-15.616,-13.91 -31.114,-28.068 -45.473,-43.241c-10.509,-11.106 -23.321,-17.01 -36.842,-22.826c-14.081,-6.057 -28.965,-11.737 -40.809,-21.018c-9.547,-7.481 -15.911,-19.625 -21.998,-30.642c-2.338,-4.228 0.011,-11.053 0.224,-16.691l2.12,0.248c7.805,9.417 14.311,20.528 23.775,27.779c9.636,7.386 22.188,10.969 34.646,14.955c-3.962,-8.555 -8.39,-16.927 -11.797,-25.689c-10.769,-27.72 -17.015,-56.437 -18.645,-86.206c-0.301,-5.39 -2.71,-10.798 -4.8,-15.935c-10.698,-26.309 -19.354,-53.101 -19.572,-81.86c-0.035,-4.269 1.683,-8.549 2.586,-12.824c1.175,0.006 2.35,0.018 3.525,0.024c2.314,11.778 3.938,23.752 7.144,35.283c3.271,11.749 8.112,23.061 12.794,36.032c2.001,-8.714 3.69,-16.088 5.384,-23.457l2.964,-0.118c11.991,68.488 40.532,129.412 81.353,184.722c1.051,-0.284 2.107,-0.561 3.164,-0.839c-2.025,-13.201 -3.879,-26.427 -6.134,-39.587c-1.228,-7.179 -3.513,-14.181 -4.611,-21.378c-0.85,-5.55 -0.903,-11.366 5.207,-16.113c1.63,2.504 3.301,4.434 4.287,6.672c10.662,24.065 13.349,49.264 9.73,75.129c-0.78,5.544 0.348,9.175 4.315,13.084c23.629,23.262 47.056,46.743 70.413,70.282c4.871,4.912 9.139,10.421 15.409,14.926c-1.836,-10.669 -2.964,-21.521 -5.62,-31.983c-12.287,-48.295 -32.024,-93.172 -61.326,-133.804c-9.6,-13.314 -16.945,-28.233 -26.014,-41.955c-16.962,-25.659 -34.521,-50.922 -51.649,-76.469c-10.733,-16.012 -21.614,-31.971 -31.468,-48.526c-4.558,-7.658 -9.429,-13.875 -17.459,-18.161c-9.287,-4.948 -17.842,-11.247 -19.773,-22.849c-0.448,-2.71 -0.555,-5.479 -0.938,-9.387c8.502,4.345 15.858,8.112 23.805,12.18c-1.098,-9.346 -2.202,-18.716 -3.3,-28.092c1.151,-0.307 2.302,-0.626 3.448,-0.939c7.645,15.628 14.547,31.682 23.149,46.761c8.727,15.297 19.136,29.632 30.277,43.814c-1.777,-8.573 -3.543,-17.146 -5.32,-25.718c-9.541,-45.999 -10.905,-92.34 -6.506,-139.024c6.86,-72.762 21.603,-144.077 37.32,-215.322c12.835,-58.197 23.073,-117.043 25.44,-176.686c1.612,-40.732 0.313,-81.63 -1.104,-122.398c-0.484,-13.898 -5.266,-27.649 -8.147,-41.452c-2.657,-12.706 -5.432,-25.382 -8.071,-38.082c-0.514,-2.479 -0.65,-5.036 -0.963,-7.551l2.456,-1.541c3.301,4.215 7.995,7.959 9.642,12.747c5.851,16.986 11.584,34.12 15.646,51.596c6.211,26.71 12.15,53.579 16.153,80.685c9.087,61.532 10.663,123.508 8.036,185.625c-0.502,11.731 -0.071,23.504 -0.071,37.095c3.489,-9.281 6.795,-17.275 9.517,-25.464c7.557,-22.761 14.731,-45.657 22.324,-68.405c7.309,-21.892 2.296,-42.946 -4.316,-63.729c-5.78,-18.179 -8.851,-36.564 -6.908,-55.569c0.531,-5.243 2.297,-10.362 5.077,-15.262c1.801,16.372 2.693,32.909 5.662,49.069c2.982,16.26 8.024,32.136 12.246,48.478c1.222,-3.525 2.29,-7.404 3.914,-11.035c1.689,-3.778 3.507,-7.645 6.075,-10.828c1.358,-1.676 4.836,-3.158 6.607,-2.55c1.789,0.614 3.903,4.032 3.72,6.028c-0.803,8.791 -1.53,17.748 -3.862,26.208c-3.955,14.341 -9.151,28.334 -13.715,42.51c-1.187,3.684 -1.972,7.498 -1.612,12.298c1.453,-1.423 2.97,-2.781 4.346,-4.275c8.685,-9.417 16.696,-19.572 26.155,-28.127c12.015,-10.869 25.606,-5.107 28.381,11.773c-4.57,0.455 -9.346,0.189 -13.615,1.541c-5.768,1.83 -12.588,3.554 -16.413,7.681c-12.358,13.355 -26.657,25.435 -33.955,42.722c-3.418,8.112 -5.508,16.785 -8.207,25.199c-6.128,19.123 -11.448,38.559 -18.686,57.252c-4.67,12.056 -12.186,23.008 -18.338,34.497c-1.447,2.699 -3.253,5.468 -3.714,8.39c-14.022,88.827 -14.199,177.808 -1.848,266.771c3.631,26.178 10.805,51.619 22.028,75.731c1.075,2.327 2.338,4.558 4.499,8.738c2.51,-12.469 4.293,-23.126 6.867,-33.582c1.995,-8.089 4.652,-16.053 7.587,-23.858c5.768,-15.292 2.975,-31.08 2.946,-46.649c-0.048,-21.833 -9.376,-41.629 -15.091,-62.182c-6.064,-21.798 -7.699,-43.672 -3.324,-65.848c0.655,-3.324 3.359,-6.241 5.119,-9.346c0.932,0.195 1.871,0.384 2.804,0.573c0.762,3.926 2.191,7.852 2.173,11.772c-0.16,28.665 6.571,55.764 16.555,82.486c4.877,13.054 6.748,27.236 10.208,41.878c1.317,-2.019 2.621,-3.489 3.336,-5.207c13.148,-31.623 24.874,-63.522 28.003,-98.15c1.222,-13.52 -0.626,-25.382 -7.841,-36.588c-14.665,-22.772 -23.646,-47.793 -27.719,-74.368c-1.766,-11.471 -1.116,-23.374 -0.892,-35.064c0.071,-3.548 2.391,-7.055 3.678,-10.58l2.87,-0.301c1.718,4.032 4.422,7.929 4.995,12.121c2.438,17.848 4.416,35.767 6.228,53.692c1.677,16.561 10.988,29.443 20.364,45.013c1.812,-22.046 -3.466,-42.587 4.776,-61.616c0.927,-0.159 1.848,-0.318 2.775,-0.478c1.228,3.389 2.858,6.695 3.631,10.185c8.148,37.077 7.923,74.728 8.36,112.437c0.614,53.456 -18.533,101.793 -36.617,150.566c-6.772,18.262 -16.703,35.72 -16.183,56.054c0.413,16.195 1.21,32.384 2.06,48.561c0.101,1.901 1.476,3.838 2.563,5.574c9.299,14.831 18.828,29.532 27.985,44.451c16.036,26.138 23.191,55.9 33.825,84.228c6.967,18.551 13.508,37.267 19.932,56.012c3.501,10.203 9.092,18.846 17.547,25.417c8.071,6.276 16.508,12.074 23.935,17.459c1.559,-7.67 4.588,-20.346 6.63,-33.181c3.271,-20.529 -6.624,-37.981 -13.638,-56.219c-10.48,-27.265 -21.42,-54.477 -29.562,-82.474c-8.018,-27.572 -19.07,-52.7 -38.294,-74.362c-10.792,-12.163 -17.181,-26.929 -15.758,-43.838c0.36,-4.275 2.291,-8.413 5.355,-12.842c6.335,21.184 12.334,41.831 30.825,57.636c-1.369,-15.817 -3.43,-30.441 -3.725,-45.095c-0.443,-22.672 0.077,-45.385 0.832,-68.051c0.113,-3.454 3.696,-6.789 5.68,-10.178c1.547,3.294 4.027,6.453 4.505,9.895c7.929,56.909 15.292,113.902 23.498,170.776c3.035,21.036 9.73,41.175 20.747,59.613c0.933,1.565 2.031,3.041 3.171,4.464c0.59,0.738 1.434,1.263 3.761,3.253c-0.833,-13.928 -1.394,-26.043 -2.315,-38.123c-3.749,-49.328 -8.035,-98.687 -5.561,-148.175c1.44,-28.676 5.449,-57.222 8.33,-85.822c1.022,-10.143 2.474,-20.257 2.976,-30.418c0.165,-3.329 -1.547,-7.049 -3.253,-10.113c-9.388,-16.886 -20.34,-33.04 -28.257,-50.569c-9.175,-20.31 -11.129,-42.202 -5.225,-64.537c3.654,16.974 5.384,34.68 11.507,50.716c6.152,16.112 16.679,30.548 25.293,45.721c0.673,-0.136 1.352,-0.266 2.031,-0.401c1.133,-14.076 2.267,-28.151 3.401,-42.232c0.023,-0.26 -0.048,-0.532 0.011,-0.78c5.893,-25.446 -6.642,-48.614 -8.82,-72.992c-1.748,-19.537 -12.629,-32.904 -25.949,-44.623c-5.62,-4.942 -14.506,-6.211 -21.957,-9.01c-4.033,-1.511 -8.189,-2.716 -12.664,-4.192c12.587,-15.711 18.285,-16.354 42.332,-6.618c-4.676,-6.229 -8.555,-13.326 -14.176,-18.533c-18.202,-16.868 -37.048,-33.039 -55.652,-49.476c-0.779,-0.691 -1.671,-1.258 -2.462,-1.943c-3.412,-2.94 -7.439,-8.868 -10.084,-8.301c-7.61,1.635 -14.683,5.839 -21.91,9.157c-1.541,0.709 -2.828,1.96 -4.522,3.165c-0.845,-17.795 6.205,-27.431 22.234,-30.442c-1.765,-14.229 -5.65,-28.688 0.195,-43.058c10.073,16.012 19.572,31.12 29.078,46.223c1.004,-0.254 2.013,-0.514 3.023,-0.768c-3.141,-15.811 10.645,-31.899 -3.684,-48.307c2.267,-1.134 4.894,-3.265 5.727,-2.716c3.076,2.037 7.273,4.599 7.935,7.634c1.918,8.88 2.202,18.096 3.383,27.147c1.476,11.348 3.312,22.642 4.776,33.99c0.827,6.4 4.983,10.025 9.919,13.213c14.837,9.565 29.668,19.141 46.447,29.975c-4.8,-19.176 -8.59,-36.717 -13.597,-53.898c-19.07,-65.435 -44.357,-128.302 -78.5,-187.455c-15.009,-26.002 -30.395,-51.838 -44.134,-78.507c-13.862,-26.905 -24.986,-55.226 -39.014,-82.037c-11.59,-22.152 -29.166,-39.25 -52.753,-49.152c-1.99,-0.838 -4.463,-0.519 -6.748,-0.738c-0.461,-14.311 8.437,-20.197 21.083,-13.213c5.426,2.999 10.515,6.914 15.032,11.171c26.586,25.045 48.868,53.68 69.757,83.531c30.111,43.029 59.631,86.418 85.574,132.127c27.395,48.266 51.106,98.138 68.605,151.003c13.745,41.518 25.512,83.437 33.264,126.478c0.218,1.234 0.791,2.403 1.411,4.21c35.773,-5.001 53.81,-30.855 70.932,-58.799c4.221,22.441 -3.141,41.257 -16.065,59.596c10.072,-5.662 17.612,-2.852 24.236,6.246c-20.18,10.173 -37.627,25.146 -61.349,26.061c-6.276,0.242 -13.32,8.041 -13.155,14.146c1.701,63.375 -8.448,125.674 -16.537,188.187c-1.996,15.433 -2.344,31.085 -3.489,47.097c11.353,-2.273 19.052,-12.298 20.658,-25.157c1.11,-8.821 1.6,-17.73 3.129,-26.463c1.276,-7.332 2.935,-14.901 11.366,-19.194c-2.817,17.146 -5.521,33.589 -8.225,50.037c0.697,0.437 1.4,0.88 2.102,1.317c9.004,-6.825 18.002,-13.65 27.436,-20.806c4.405,6.441 2.516,12.918 -0.141,19.023c-4.954,11.354 -12.753,20.54 -23.93,26.061c-14.683,7.256 -22.347,20.446 -28.51,34.238c-2.214,4.959 0.112,12.251 1.204,18.326c4.977,27.737 11.507,55.262 15.032,83.171c2.852,22.488 2.226,45.414 3.094,68.151c0.549,14.37 0.69,28.764 1.724,43.1c0.242,3.353 3.359,6.494 5.16,9.735c3.253,-1.877 8,-2.969 9.47,-5.78c4.292,-8.236 8.584,-16.874 10.533,-25.86c5.933,-27.324 10.609,-54.919 16.124,-82.338c1.641,-8.154 4.487,-16.059 6.636,-24.124c0.791,-2.97 1.736,-6.081 1.63,-9.092c-0.313,-9.459 -7.658,-14.548 -16.709,-10.958c-7.073,2.804 -13.562,7.084 -20.027,10.562c-2.432,-9.748 6.696,-19.808 30.011,-31.15c-9.405,-14.235 -12.115,-29.668 -7.315,-48.744c10.846,15.504 15.403,31.894 23.84,47.988c3.413,-13.768 7.457,-26.291 9.5,-39.132c3.596,-22.666 7.115,-45.456 8.425,-68.328c0.732,-12.706 -2.302,-25.854 -5.184,-38.448c-1.31,-5.691 -5.538,-11.412 -9.895,-15.61c-23.97,-23.091 -36.027,-51.395 -38.43,-84.204c-0.495,-6.784 -1.233,-13.591 -1.08,-20.369c0.089,-4.051 1.694,-8.071 2.616,-12.104c1.074,0.053 2.143,0.107 3.217,0.16c1.636,11.542 1.86,23.533 5.302,34.509c3.537,11.253 10.22,21.521 17.488,32.071c0.36,-4.387 0.98,-8.773 1.021,-13.16c0.16,-17.718 0.26,-35.442 0.142,-53.16c-0.047,-7.109 -1.618,-14.418 5.792,-22.395c3.312,12.009 7.534,21.999 8.502,32.307c0.986,10.457 0.118,21.55 -2.456,31.741c-2.238,8.903 -1.382,17.252 -1.535,25.996c-0.278,15.338 6.73,22.435 20.824,25.364c4.611,0.956 8.743,4.245 13.638,6.742c0.213,-1.47 0.679,-3.318 0.732,-5.184c0.998,-35.324 0.957,-70.713 3.153,-105.96c2.751,-44.086 7.215,-88.066 11.2,-132.069c0.868,-9.565 -2.946,-14.778 -14.247,-19.767c-22.506,-9.937 -44.977,-7.587 -67.507,-0.726c-7.87,2.397 -15.321,2.686 -23.398,-1.583c7.687,-10.946 18.043,-17.045 30.418,-19.359c21.81,-4.074 43.749,-7.516 65.63,-11.241c2.314,-0.39 4.599,-0.998 6.919,-1.276c11.543,-1.381 18.48,-6.831 22.938,-18.509c11.897,-31.174 32.868,-56.579 54.123,-81.978c30.494,-36.446 64.342,-70.531 87.853,-112.267c24.23,-43.023 48.289,-86.506 57.145,-135.941c2.864,-15.995 2.244,-32.626 3.005,-48.981c0.827,-17.688 1.394,-35.389 2.067,-53.072c8.596,-1.198 12.641,3.088 14.624,8.585c3.968,11.005 7.51,22.211 10.362,33.559c7.699,30.583 15.203,61.213 22.288,91.944c6.796,29.468 5.402,59.201 1.659,88.939c-4.345,34.528 -9.447,68.895 -24.012,100.937c-6.595,14.5 -13.355,28.995 -21.154,42.864c-24.431,43.43 -37.533,90.474 -45.798,139.171c-0.868,5.083 -1.949,10.131 -3.212,16.649c4.788,-1.612 8.685,-2.645 12.351,-4.192c31.735,-13.366 60.535,-5.39 85.633,14.849c15.262,12.298 27.413,28.487 40.768,43.106c26.462,28.954 40.437,64.975 55.841,100.086c9.712,22.164 18.178,44.877 27.111,67.378c0.75,1.901 1.494,4.245 1.034,6.087c-1.199,4.865 -3.053,9.576 -4.653,14.347c-3.223,-2.639 -6.978,-4.836 -9.57,-7.989c-8.361,-10.178 -16.29,-20.705 -24.52,-31.274c-3.531,20.812 -10.633,41.477 -3.23,63.345c-5.668,-1.7 -8.283,-4.327 -8.655,-11.388c-0.543,-10.392 -0.077,-20.842 0.224,-31.257c0.083,-2.834 1.081,-5.638 1.677,-8.454c3.171,-14.814 3.489,-28.505 -5.06,-42.752c-11.938,-19.897 -21.201,-41.405 -31.646,-62.205c-1.228,-2.451 -2.704,-4.783 -4.457,-7.859c-9.341,35.141 0.112,64.768 22.66,90.87c-6.211,4.806 -11.017,2.468 -13.609,-1.11c-5.727,-7.9 -10.451,-16.543 -15.274,-25.063c-1.364,-2.409 -1.665,-5.414 -2.521,-8.354c-7.906,10.155 -12.977,29.237 -6.961,51.832c-6.341,-0.053 -6.914,-5.119 -7.699,-8.968c-3.171,-15.504 -2.066,-30.991 3.962,-45.509c11.572,-27.909 9.552,-55.363 -2.327,-82.156c-2.68,-6.045 -9.83,-10.627 -15.787,-14.6c-15.422,-10.291 -31.817,-18.533 -51.283,-15.292c-11.72,1.954 -22.542,6.188 -31.498,14.548c-8.284,7.734 -16.916,15.108 -27.023,24.094c12.268,2.079 21.868,3.868 31.527,5.184c1.612,0.224 3.584,-1.464 5.261,-2.474c7.315,-4.398 14.583,-8.868 21.869,-13.313c0.714,0.531 1.44,1.062 2.155,1.594c-2.327,6.878 -4.653,13.756 -7.068,20.918c15.351,10.267 33.211,2.828 49.872,5.473c-1.978,10.68 -9.175,18.616 -19.536,19.259c-9.352,0.579 -18.823,-0.744 -28.511,-1.24c5.107,18.462 13.65,36.009 25.925,51.868c6.193,8.012 12.251,16.289 17.157,25.122c4.097,7.392 3.483,15.539 -1.877,24.413c-2.581,-14.719 -12.033,-23.652 -20.015,-33.706c-5.468,-6.885 -9.205,-15.139 -13.71,-22.784c-1.423,-2.415 -2.822,-4.848 -5.166,-8.862c-3.412,16.685 2.439,30.66 4.806,45.898c-8.537,-3.058 -10.728,-9.435 -11.283,-15.782c-1.062,-12.203 -1.251,-24.502 -1.381,-36.77c-0.148,-14.206 -3.796,-26.344 -17.518,-33.282c-0.85,-0.431 -1.836,-0.578 -2.792,-0.868c-0.709,11.36 -1.382,22.294 -2.067,33.229c-1.027,0.076 -2.054,0.159 -3.087,0.242c-0.868,-5.65 -2.527,-11.312 -2.415,-16.945c0.171,-8.844 -4.564,-14.76 -10.208,-20.322c-1.287,-1.275 -3.891,-2.232 -5.603,-1.895c-8.136,1.606 -16.384,3.082 -24.184,5.804c-7.539,2.639 -12.605,8.242 -16.183,15.876c-11.513,24.596 -23.74,48.862 -35.631,73.281c-1.228,2.527 -2.06,5.243 -2.432,8.372c11.141,-5.969 21.148,-12.274 26.273,-25.263c4.729,-11.98 12.074,-22.926 18.297,-34.315c1.334,-2.45 2.792,-4.823 4.091,-7.043c5.503,7.51 4.168,13.697 -8.756,37.561c11.72,-0.679 24.249,-7.208 33.748,3.395c3.371,3.755 3.791,10.149 5.869,16.231c-25.506,-4.812 -46.802,-2.58 -62.365,20.327c21.455,-1.558 31.557,8.886 31.498,30.489c-1.983,-1.116 -3.566,-1.765 -4.876,-2.781c-6.607,-5.142 -13.946,-7.368 -22.412,-7.764c-6.276,-0.289 -12.771,-2.06 -18.598,-4.516c-7.268,-3.064 -15.628,-1.075 -19.277,6.364c-18.87,38.513 -36.871,77.35 -46.217,119.57c-2.87,12.96 -6.442,25.76 -9.624,38.648c-0.289,1.163 -0.035,2.462 -0.035,4.493c19.843,-21.68 32.519,-48.543 56.248,-65.535c0.885,0.637 1.759,1.281 2.645,1.919c-7.835,12.268 -15.67,24.537 -23.835,37.331c17.134,-3.318 33.96,-9.936 52.912,-2.521c-9.328,8.254 -18.101,13.408 -28.941,14.442c-13.651,1.299 -26.947,3.902 -38.725,11.377c-2.964,1.877 -5.958,4.375 -7.776,7.303c-9.14,14.743 -16.071,30.158 -17.535,47.983c-1.836,22.376 -5.432,44.605 -7.611,66.964c-0.803,8.266 -0.224,16.762 0.626,25.063c0.892,8.773 5.739,10.893 12.853,5.591c4.741,-3.531 9.051,-7.935 12.7,-12.617c17.583,-22.554 27.873,-48.384 30.495,-76.659c0.933,-10.025 -2.952,-20.493 -4.546,-30.778c-0.868,-5.626 -1.529,-11.288 -2.321,-17.145c11.75,1.783 12.936,3.979 18.882,34.043c5.071,-6.926 9.612,-13.503 14.541,-19.767c5.09,-6.465 10.829,-12.039 21.899,-9.175c-21.084,20.581 -40.095,41.506 -45.97,72.437c10.852,-11.578 20.517,-22.359 30.678,-32.644c16.331,-16.519 32.036,-33.842 49.724,-48.791c30.371,-25.671 64.101,-46.583 99.266,-65.234c10.285,-5.456 19.418,-13.096 29.013,-19.832c2.556,-1.795 4.581,-4.57 7.338,-5.845c16.662,-7.687 18.25,-22.92 20.009,-38.353c1.683,-14.737 3.501,-29.491 6.105,-44.08c0.986,-5.503 4.098,-10.811 11.909,-12.109c-3.495,13.189 -6.843,25.83 -10.197,38.471c14.395,-15.953 14.566,-16.06 23.693,-14.53c-9.659,19.684 -19.442,39.604 -29.632,60.357c3.507,0.939 4.918,1.653 6.317,1.636c39.569,-0.473 74.392,14.494 105.837,36.209c41.683,28.783 80.815,61.291 122.705,89.772c34.415,23.392 68.21,48.514 108.174,62.637c8.567,3.028 16.739,4.357 25.978,1.966c15.593,-4.045 31.198,-0.833 46.566,2.716c7.628,1.765 15.215,3.713 22.754,5.797c18.882,5.226 28.629,19.035 27.118,38.507c-2.433,31.445 -15.687,59.194 -29.645,86.743c-30.701,60.605 -77.662,106.693 -131.867,145.784c-40.331,29.083 -85.805,47.604 -134.525,57.322c-41.642,8.313 -83.578,11.49 -126.306,9.17c-47.753,-2.592 -95.712,-2.268 -143.576,-1.789c-26.374,0.265 -52.588,4.262 -77.615,13.502c-5.792,2.138 -11.265,5.107 -18.586,8.473c10.385,4.15 19.129,7.12 27.412,11.058c17.707,8.396 35.077,17.482 52.759,25.925c13.78,6.577 26.575,2.007 33.99,-11.56c4.954,-9.063 9.624,-11.147 22.654,-8.921c-7.221,10.208 -13.975,19.772 -21.833,30.902c12.759,3.548 24.077,8.673 35.596,9.163c6.99,0.301 14.394,-6.371 21.331,-10.397c1.051,-0.609 0.874,-3.885 0.744,-5.893c-0.496,-8.088 -1.441,-16.159 -1.724,-24.248c-0.195,-5.591 0.431,-11.2 1.748,-16.832c6.116,13.083 8.059,26.639 5.685,40.809c0.673,0.472 1.346,0.938 2.014,1.411c7.634,-8.951 15.516,-17.701 22.837,-26.899c7.515,-9.441 14.341,-10.982 25.163,-4.664c-15.073,16.702 -30.135,33.387 -45.231,50.125c40.082,8.018 66.06,4.576 96.036,-34.887c3.631,-4.776 6.659,-10.002 10.172,-14.872c5.55,-7.717 11.035,-8.992 20.854,-4.848c-7.983,10.663 -15.906,21.243 -23.829,31.817c0.401,0.467 0.797,0.933 1.192,1.4c7.262,-4.617 14.613,-9.093 21.751,-13.881c11.3,-7.581 16.933,-7.179 27.271,2.787c-18.185,11.997 -36.275,23.929 -54.353,35.856c0.271,0.743 0.543,1.481 0.815,2.219c25.369,-0.637 51.088,1.86 75.666,-6.86c6.867,-2.433 12.47,-8.419 18.527,-12.688c-3.312,-16.726 -6.766,-33.087 -0.684,-49.459c0.59,-1.605 3.17,-2.479 5.721,-4.357c-1.96,16.018 -5.013,30.548 6.624,45.361c6.264,-12.02 12.257,-22.972 17.712,-34.178c4.399,-9.022 8.473,-11.336 18.834,-9.252c-9.21,17.364 -18.409,34.716 -28.729,54.182c13.668,-3.944 25.122,-8.213 36.96,-10.38c11.282,-2.06 21.455,-11.465 34.574,-6.187c-5.314,11.029 -14.034,17.753 -23.138,24.118c-29.934,20.942 -63.003,35.82 -96.296,50.415c-30.766,13.497 -63.351,17.346 -96.231,19.495c-39.28,2.569 -78.819,2.421 -117.078,-7.309c-38.548,-9.807 -77.196,-19.838 -112.431,-40.053c-17.252,-9.907 -36.588,-15.304 -57.229,-17.453c-12.121,-1.251 -17.517,2.905 -24.543,10.214c-28.416,29.586 -50.515,63.233 -60.547,102.991c-13.803,54.684 -15.988,109.486 5.822,163.414c13.703,33.86 26.096,68.251 38.725,102.536c15.049,40.851 27.029,82.829 31.545,125.982c3.962,37.851 3.46,76.257 3.313,114.409c-0.101,26.923 -2.321,53.781 4.256,80.331c2.516,10.155 8.55,18.427 22.731,16.514c19.749,-2.669 35.803,-9.948 48.744,-25.128c5.379,-6.317 11.874,-11.938 18.681,-16.691c3.914,-2.727 9.464,-3.105 15.008,-2.946c-19.312,24.107 -37.78,48.29 -68.552,62.985c15.002,5.308 28.18,10.952 41.895,14.595c18.143,4.829 36.789,7.746 55.05,12.198c7.221,1.765 13.39,0.696 19.554,-2.657c29.592,-16.118 59.909,-31.056 88.526,-48.75c23.711,-14.672 48.679,-18.698 75.602,-18.38c15.622,0.183 31.369,-1.104 46.873,-3.158c12.629,-1.665 24.336,-7.245 32.325,-17.559c13.083,-16.88 30.99,-22.483 50.97,-23.056c20.115,-0.572 40.325,0.927 60.381,-0.371c13.597,-0.874 26.993,-4.984 40.472,-7.688c2.752,-0.555 5.462,-1.293 9.949,-2.355c-5.845,12.499 -10.303,23.179 -24.567,26.178c-20.44,4.304 -40.933,4.434 -61.639,3.98c-14.052,-0.307 -28.204,0.307 -42.185,1.753c-11.448,1.181 -21.154,6.743 -29.083,15.552c-5.326,5.916 -11.661,10.916 -18.197,16.938c6.944,2.179 13.68,4.535 20.553,6.406c31.716,8.679 60.818,23.085 89.571,38.814c31.917,17.464 66.238,28.57 102.902,30.129c8.266,0.348 16.844,-2.545 25.004,-4.889c7.15,-2.061 13.756,-6.524 22.099,-2.976c-11.33,18.994 -27.466,28.552 -49.406,27.413c-34.981,-1.813 -67.613,-12.033 -98.533,-28.139c-6.884,-3.59 -13.739,-7.238 -22.294,-11.749c22.4,35.773 39.315,73.754 80.809,90.114c-9.883,10.94 -17.104,12.399 -27.495,5.042c-17.447,-12.351 -29.267,-29.638 -39.799,-47.853c-16.195,-27.979 -35.419,-53.172 -65.229,-67.891c-24.136,-11.908 -49.76,-19.235 -76.788,-19.495c-10.545,-0.1 -21.798,0.98 -31.546,4.647c-19.377,7.285 -37.94,16.732 -56.839,25.293l0.053,3.772c9.577,4.381 18.787,10.002 28.795,12.883c26.025,7.498 52.422,13.721 78.624,20.611c10.575,2.787 21.344,5.214 31.469,9.205c14.011,5.508 20.765,18.545 19.159,34.852c-1.718,-1.169 -3.348,-1.913 -4.493,-3.118c-11.365,-11.932 -26.108,-16.443 -41.582,-20.209c-22.808,-5.55 -45.084,-13.568 -68.092,-17.86c-22.619,-4.21 -42.256,-12.889 -59.401,-28.523c-8.071,6.294 -15.829,12.334 -24.437,19.041c2.609,1.245 4.327,2.184 6.134,2.899c43.389,17.175 83.118,39.982 117.32,72.337c25.895,24.507 42.049,54.89 57.606,86.128c20.269,40.691 40.91,81.43 69.728,116.842c15.787,19.401 36.422,32.78 63.61,25.542c6.471,-1.724 12.694,-6.117 17.872,-10.616c18.013,-15.658 38.135,-23.87 62.459,-22.164c14.223,0.992 22.141,8.608 28.588,21.361c-6.512,0 -12.257,0.951 -17.571,-0.165c-26.834,-5.627 -50.81,-1.341 -71.392,17.984c-5.621,5.278 -12.481,9.228 -19.448,14.27c3.531,1.393 7.256,2.786 10.929,4.322c23.167,9.647 46.04,20.103 69.597,28.658c12.062,4.375 25.258,6.252 38.117,7.604c10.609,1.122 18.769,5.285 27.802,14.477c-8.998,2.185 -16.502,5.928 -23.652,5.349c-16.543,-1.34 -33.234,-3.536 -49.293,-7.628c-31.114,-7.935 -61.792,-17.694 -89.476,-34.586c-21.574,-13.16 -42.663,-27.117 -64.68,-41.181c-0.614,2.202 -1.316,3.531 -1.316,4.865c0.059,21.993 -0.26,44.003 0.661,65.967c0.236,5.656 3.708,11.672 7.049,16.596c5.267,7.746 11.732,14.672 17.606,22.01c17.234,21.568 14.944,45.881 9.234,70.354c-4.428,18.993 -5.715,37.443 2.256,55.988c3.117,7.274 4.115,15.445 5.054,23.605c-11.643,-6.223 -15.256,-16.975 -16.945,-28.724c-2.834,-19.696 -1.647,-39.232 4.168,-58.238c7.286,-23.781 -3.737,-41.588 -18.202,-58.261c-8.514,-9.819 -18.61,-18.545 -18.875,-33.258c-4.517,12.151 -8.526,24.52 -13.668,36.399c-5.456,12.593 -12.275,23.905 -22.029,34.515c-17.163,18.669 -28.941,41.482 -34.084,66.905c-2.48,12.257 -4.889,24.602 -6.134,37.019c-1.577,15.622 1.417,30.695 8.484,44.877c1.328,2.668 1.96,5.685 2.993,8.761c-9.706,-0.342 -13.851,-3.625 -15.823,-12.475c-4.676,-21.007 -3.678,-41.943 -0.206,-63.091c5.42,-33.039 17.045,-63.428 36.286,-90.84c4.806,-6.849 10.173,-13.308 14.737,-20.305c16.821,-25.806 21.113,-54.967 20.493,-84.812c-0.354,-17.393 -3.383,-34.781 -5.881,-52.074c-0.625,-4.381 -3.111,-8.945 -5.933,-12.493c-28.481,-35.873 -51.915,-75.135 -77.356,-113.075c-29.756,-44.369 -65.405,-83.584 -115.407,-106.911c-14.813,-6.914 -30.176,-8.089 -45.863,-8.266c-26.427,-0.301 -52.859,-0.148 -79.286,-0.189c-2.775,-0.006 -5.556,-0 -8.242,-0c-0.154,1.393 -0.449,2.066 -0.23,2.35c10.456,13.981 20.558,28.245 31.593,41.753c6.878,8.42 17.476,10.244 27.713,10.953c26.669,1.848 48.231,13.809 67.035,32.053c19.484,18.911 38.778,38.064 59.201,55.918c6.482,5.667 16.266,7.628 24.638,11.052c7.374,3.017 14.872,5.721 23.734,9.11c-9.612,9.352 -18.799,12.599 -29.922,9.624c-13.762,-3.673 -25.329,-11.389 -35.436,-20.942c-14.625,-13.828 -28.718,-28.234 -42.669,-42.746c-19.159,-19.944 -41.512,-32.986 -69.745,-34.58c-5.107,-0.289 -10.138,-1.878 -16.396,-3.106c0.992,4.257 1.199,8.248 2.816,11.537c11.555,23.392 14.507,49.016 19.076,74.12c3.986,21.922 11.543,42.315 22.288,61.615c8.951,16.065 21.296,28.83 37.267,38.318c7.51,4.457 14.052,10.538 21.343,16.13c-9.086,6.972 -17.021,7.374 -26.149,1.936c-19.672,-11.725 -32.531,-29.066 -42.681,-48.933c-11.926,-23.368 -16.519,-48.862 -22.087,-74.167c-10.539,-47.924 -30.359,-90.858 -69.261,-122.894c-10.887,-8.968 -21.786,-17.931 -32.844,-26.675c-1.878,-1.481 -4.718,-2.81 -6.973,-2.603c-24.23,2.125 -48.065,-0.679 -71.8,-5.113c-0.956,-0.177 -1.966,-0.024 -1.405,-0.024c5.32,12.865 12.806,25.53 15.563,39.144c2.829,14.017 1.577,28.989 0.957,43.496c-0.183,4.327 -4.251,8.496 -6.536,12.735l-2.409,-1.228c1.181,-5.698 2.834,-11.348 3.436,-17.104c2.74,-25.99 -6.329,-47.705 -24.578,-65.937c-0.366,-0.372 -0.821,-0.703 -1.063,-1.146c-9.712,-17.771 -27.389,-26.338 -42.887,-37.52c-19.301,-13.928 -34.923,-31.428 -47.818,-51.395c-1.068,-1.659 -2.462,-3.112 -4.918,-6.17c-1.653,10.923 -3.979,20.098 -4.274,29.332c-1.134,35.554 -3.218,71.167 2.905,106.545c7.722,44.652 30.565,81.004 60.829,113.724c3.873,4.187 8.011,7.863 12.366,11.162l-36.655,0l0,60.789Zm67.196,-43.406c8.185,3.885 16.354,7.838 24.754,11.196c24.603,9.836 40.567,26.291 42.409,53.591c1.818,0.43 3.6,0.899 5.345,1.404l-26.325,80.196l-0.879,-0l-45.304,-146.387Zm161.759,163.961c2.107,0.549 4.723,0.685 8.094,0.57c14.955,-0.502 29.946,-0.868 43.868,5.999c15.51,7.657 24.561,21.626 33.375,35.495c12.635,19.891 25.394,39.54 42.386,56.183c7.982,7.829 17.269,12.192 27.743,15.292c6.312,1.866 12.157,5.308 18.746,8.277c-13.928,13.456 -30.211,12.865 -45.155,-0.206c-20.375,-17.831 -34.645,-40.361 -49.057,-62.843c-4.357,-6.79 -9.405,-13.161 -14.435,-19.49c-10.043,-12.64 -23.221,-19.176 -39.428,-19.365c-8.399,-0.093 -16.799,-0.021 -26.137,-0.018l0,-19.894Zm0,24.21c1.057,6.816 2.263,13.524 2.639,20.281c0.909,16.383 0.236,32.897 1.871,49.192c3.159,31.381 11.153,61.568 25.683,89.814c8.679,16.873 21.491,29.992 36.31,41.564c5.615,4.387 10.061,10.268 15.764,16.231c-9.96,3.778 -17.122,3.459 -24.903,-2.226c-18.71,-13.668 -30.141,-32.473 -39.079,-52.995c-14.111,-32.42 -20.334,-66.77 -22.961,-101.852c-1.303,-17.36 -3.162,-34.574 -7.167,-51.403l11.843,0l0,-8.606Zm-42.334,-54.301c-7.492,-8.832 -16.131,-16.663 -25.878,-23.553l9.653,-29.316c5.942,4.272 11.317,9.136 16.225,14.486l0,38.383Zm-65.705,62.907c5.714,8.544 8.146,19.394 9.635,30.308c2.273,16.744 2.988,33.771 3.383,50.698c0.49,20.753 10.439,37.952 19.265,55.646c1.376,2.763 3.372,5.22 5.09,7.835c-7.062,4.039 -12.281,3.241 -15.953,-3.318c-8.225,-14.707 -14.2,-30.199 -15.658,-47.286c-1.517,-17.848 1.045,-36.446 -7.415,-53.166c-4.848,-9.565 -11.177,-18.386 -16.845,-27.543c-0.933,0.207 -1.871,0.408 -2.81,0.608c-5.219,22.271 -10.746,44.488 -15.557,66.846c-3.454,16.065 -6.294,32.278 -8.821,48.514c-9.352,60.033 14.99,105.648 61.125,141.858c25.275,19.844 54.997,30.89 84.688,41.358c15.115,5.332 31.445,2.97 47.239,-1.009c5.638,-1.417 11.938,-0.225 19.123,-0.225c-9.995,17.388 -24.838,22.66 -41.647,23.351c-24.614,1.015 -47.558,-5.249 -68.889,-17.618c-4.145,-2.397 -8.697,-4.091 -14.028,-6.565c8.136,31.988 13.349,63.805 44.05,81.777c-8.596,9.937 -16.614,9.807 -25.004,-0.147c-10.214,-12.139 -15.77,-26.817 -18.397,-41.913c-3.247,-18.651 -13.367,-33.288 -23.782,-47.853c-3.235,-4.529 -9.647,-6.837 -14.724,-9.972c-24.402,-15.044 -47.304,-31.729 -61.97,-56.957c-6.913,11.371 -12.469,23.227 -20.558,33.004c-7.238,8.744 -8.992,14.784 -2.397,25.163c14.022,22.105 20.493,46.583 12.281,72.579c-3.501,11.088 -8.762,21.792 -14.471,31.971c-6.56,11.714 -9.116,23.705 -7.197,36.865c0.354,2.433 0.053,4.959 0.053,7.445l-2.185,0.85c-1.741,-3.991 -4.233,-7.823 -5.101,-11.997c-2.485,-11.985 0.225,-23.421 5.343,-34.291c4.121,-8.732 8.402,-17.393 12.954,-25.913c8.1,-15.173 8.626,-30.146 0.673,-45.692c-6.123,-11.979 -11.271,-24.454 -16.862,-36.717c-14.394,6.63 -34.539,28.463 -40.856,43.088c-0,-5.538 -0.998,-11.306 0.183,-16.579c3.879,-17.381 17.547,-27.342 30.488,-37.467c15.262,-11.95 27.785,-26.09 37.066,-43.059c3.082,-5.626 3.797,-10.639 0.136,-17.352c-7.988,-14.642 -9.901,-31.103 -10.61,-47.734c-1.464,-34.362 5.249,-67.537 13.078,-100.707c6.949,-29.467 12.818,-59.2 19.129,-88.821c0.313,-1.44 0.343,-2.946 0.585,-5.207c-1.547,0.809 -2.551,1.092 -3.224,1.724c-11.684,10.858 -23.132,21.975 -35.017,32.596c-21.095,18.852 -30.749,40.963 -24.685,69.911c4.186,19.997 0.248,40.089 -6.595,59.342c-1.783,5.018 -4.894,8.602 -11.566,6.223c13.225,-22.424 13.101,-46.105 9.7,-70.66c-4.037,-29.155 5.754,-53.178 23.947,-73.792l13.27,0l0,-13.331c11.998,-11.37 23.721,-23.031 35.327,-34.8l14.771,48.131l30.242,0Zm-73.594,-141.263c-2.08,-0.663 -4.175,-1.256 -6.283,-1.761c-0.65,-0.156 -1.302,-0.31 -1.953,-0.462c-0.112,-2.182 -0.226,-4.329 -0.341,-6.441c-0.439,-8.056 -0.757,-14.086 -0.952,-18.09l1.318,-0l8.211,26.754Zm717.612,-1458.75c-7.227,2.439 -14.713,4.322 -21.585,7.528c-3.844,1.795 -5.715,5.816 -2.887,10.616c7.445,12.611 33.246,13.39 41.257,0.997c1.01,-1.558 1.406,-3.932 1.175,-5.815c-1.346,-10.875 -3.365,-12.151 -17.96,-13.326Zm-347.786,-149.745c-0.585,0.72 -1.169,1.44 -1.748,2.167c0.496,1.423 0.886,2.887 1.5,4.257c11.902,26.656 24.165,53.16 35.619,80.012c6.117,14.341 16.325,23.646 29.987,30.406c6.583,3.259 12.198,8.478 19.035,13.361c-8.437,5.172 -16.089,8.767 -23.357,3.649c-8.378,-5.893 -15.959,-13.113 -23.055,-20.553c-3.744,-3.926 -5.71,-9.547 -8.485,-14.4c-0.808,0.384 -1.623,0.768 -2.426,1.146c8,17.541 16.012,35.088 24.348,53.349c-9.234,0.053 -13.756,-4.723 -16.466,-11.271c-6.353,-15.356 -12.322,-30.872 -18.297,-45.94c-5.485,6.288 -11.395,13.072 -17.99,20.641c-3.206,-12.334 -0.785,-22.459 7.67,-30.713c5.012,-4.889 6.347,-10.131 3.778,-16.272c-4.422,-10.58 -8.578,-21.349 -14.022,-31.398c-3.542,-6.53 -9.175,-11.926 -13.869,-17.824c-0.708,0.39 -1.417,0.785 -2.131,1.175c4.393,23.168 1.677,45.757 -3.926,68.34c-2.368,9.529 -3.005,19.649 -3.165,29.514c-0.165,10.882 1.122,21.786 1.866,34.155c-2.161,-2.408 -4.322,-3.778 -4.942,-5.656c-9.966,-30.14 -2.745,-59.607 4.228,-89.116c-12.234,14.548 -27.449,26.775 -30.436,47.156c-4.664,-23.51 -2.48,-31.681 12.156,-48.951c2.368,-2.792 5.202,-5.172 7.599,-7.935c15.044,-17.34 8.886,-38.725 -12.895,-44.924c-4.522,-1.281 -9.056,-2.539 -13.638,-3.572c-1.618,-0.36 -3.59,-0.472 -5.072,0.112c-6.311,2.503 -12.487,5.343 -18.727,8.006c-23.398,9.99 -42.173,26.923 -62.613,41.405c-33.417,23.693 -64.089,50.374 -91.337,80.969c-3.849,4.322 -7.315,8.986 -12.085,14.896c16.413,-0.514 30.66,-1.24 43.011,-8.868c6.766,-4.186 11.985,-10.787 18.344,-15.734c16.254,-12.647 34.049,-23.504 46.141,-40.868c1.263,-1.825 3.324,-3.088 5.018,-4.611c-3.944,18.775 -15.085,32.555 -29.373,43.46c10.067,-0 19.968,-0.762 29.698,0.188c12.959,1.27 20.162,10.421 20.546,26.291c-28.109,-11.383 -55.498,-12.215 -81.205,3.708c12.115,9.494 24.213,18.787 36.104,28.334c10.237,8.224 20.623,10.391 32.041,2.356c8.744,-6.158 17.594,-12.169 26.592,-17.943c8.437,-5.408 13.09,-4.942 19.738,1.571c-13.19,8.661 -26.297,17.263 -39.404,25.871c0.206,0.839 0.401,1.677 0.602,2.515l29.591,0c-6.666,9.423 -18.604,17.223 -28.115,17.465c-28.741,0.732 -55.056,-5.208 -74.22,-29.243c-9.872,-12.375 -24.886,-15.38 -39.186,-8.236c-8.183,4.091 -16.449,8.047 -24.455,12.469c-21.012,11.613 -40.147,25.081 -51.46,47.54c-19.141,38.01 -39.043,75.631 -58.326,113.571c-2.551,5.012 -3.684,10.846 -4.895,16.425c-3.784,17.423 6.855,26.94 23.888,21.213c8.644,-2.91 17.075,-6.529 25.5,-10.066c17.925,-7.528 28.499,-28.363 26.25,-47.912c-1.535,-13.355 -1.417,-27.017 -0.721,-40.478c0.372,-7.156 3.578,-9.063 9.63,-9.683c-8.697,18.208 -0.402,36.021 0.655,54.241c4.605,-8.118 8.378,-16.36 11.566,-24.827c7.847,-20.841 15.64,-41.659 31.753,-57.942c3.566,-3.602 6.86,-7.853 13.319,-5.657c-10.745,20.854 -21.284,41.294 -31.823,61.734l3.206,2.267c3.419,-3.861 6.412,-8.266 10.379,-11.442c4.151,-3.33 8.986,-6.684 14.011,-7.788c4.363,-0.962 9.417,1.187 14.17,1.966c0.094,0.892 0.2,1.783 0.301,2.681c-22.507,17.712 -48.762,32.236 -55.741,64.26c1.435,-0.419 2.332,-0.656 3.212,-0.933c17.122,-5.367 34.155,-11.064 51.407,-15.959c8.75,-2.485 17.984,-3.241 26.875,-5.313c10.852,-2.522 19.584,-15.699 16.319,-26.114c-4.428,-14.135 -10.226,-27.838 -15.51,-41.701c-3.69,-9.7 -5.166,-19.294 0.018,-28.806c3.283,8.52 5.839,16.968 9.683,24.768c7.746,15.716 18.432,30.111 21.52,48.608c3.218,-6.831 5.662,-13.762 6.689,-20.894c1.116,-7.723 0.514,-15.688 1.412,-23.463c0.867,-7.593 4.729,-13.532 13.544,-17.713c-2.888,12.653 -5.444,23.888 -8.361,36.688c16.898,-11.276 28.924,-28.581 51.277,-17.606c-9.883,8.632 -20.209,16.408 -31.114,23.257c-12.322,7.734 -20.877,17.984 -26.291,33.251c35.371,-4.014 69.007,-8.248 100.092,-23.273c5.113,-2.468 9.458,-7.298 13.089,-11.885c6.642,-8.384 11.915,-17.89 18.817,-26.026c7.563,-8.915 15.876,-17.316 24.691,-24.992c7.976,-6.949 17.47,-5.538 24.655,2.852c-25.647,15.298 -45.261,36.115 -57.647,64.343c4.28,-2.557 7.929,-5.025 11.831,-7.002c12.287,-6.229 24.307,-13.231 37.119,-18.114c11.372,-4.334 21.934,-0.602 31.558,10.019c-7.723,2.952 -14.259,6.943 -21.184,7.799c-18.096,2.226 -33.181,10.592 -47.658,20.665c-11.3,7.858 -23.227,13.874 -37.172,15.634c-3.554,0.448 -7.038,2.916 -10.191,5.001c-10.178,6.742 -20.186,13.738 -30.27,20.628c-1.399,0.963 -2.822,1.884 -5.833,3.885c6.925,1.01 12.103,1.423 17.122,2.545c45.207,10.096 91.047,8.065 136.815,7.191c2.633,-0.053 5.739,-1.11 7.758,-2.763c6.459,-5.284 12.434,-11.159 18.74,-16.644c16.195,-14.081 21.042,-33.358 19.554,-52.936c-1.009,-13.231 -8.673,-25.948 -13.308,-38.914c-4.723,-13.201 -9.942,-26.261 -13.862,-39.705c-2.185,-7.498 -0.307,-15.214 5.071,-22.116c-1.842,21.13 8.679,38.152 17.276,55.646c6.901,14.046 11.69,28.517 12.321,44.192c0.248,5.993 0.042,12.003 0.042,18.007c0.696,0.071 1.393,0.142 2.084,0.213c1.133,-3.088 2.621,-6.099 3.33,-9.287c2.745,-12.222 4.753,-24.638 7.947,-36.741c3.778,-14.336 8.006,-28.606 13,-42.563c3.265,-9.14 9.589,-11.566 16.615,-8.23c-17.146,32.124 -28.104,71.876 -23.528,87.339c3.111,-3.785 5.851,-7.185 8.661,-10.521c11.59,-13.786 22.973,-27.755 34.94,-41.199c3.72,-4.186 8.697,-7.616 13.716,-10.214c6.925,-3.584 14.063,-3.241 21.378,3.153c-11.087,8.885 -21.762,17.44 -33.842,27.129c16.083,-1.069 16.083,-1.069 43.094,10.114c-5.355,3.678 -9.269,8.395 -13.798,9.092c-12.534,1.925 -25.316,2.208 -38.01,3.029c-1.518,0.094 -3.147,-0.927 -4.617,-0.703c-2.71,0.414 -6.353,0.508 -7.823,2.244c-6.199,7.368 -10.628,16.602 -17.783,22.731c-11.862,10.161 -11.832,24.761 -18.073,37.886c71.192,-15.917 132.647,-48.224 186.003,-96.16c-36.736,-22.329 -48.266,-79.392 -32.455,-121.955c-44.836,-9.145 -85.869,-27.95 -126.755,-49.015c3.72,12.085 8.177,23.368 13.568,34.184c3.684,7.392 7.403,16.018 18.816,12.541c1.092,-0.337 2.586,0.312 3.808,0.749c10.503,3.767 21.001,7.54 31.439,11.448c1.837,0.685 3.407,2.061 5.237,3.2c-6.931,8.095 -14.902,12.458 -26.084,10.486c4.664,5.798 8.537,10.61 12.694,15.77c-4.021,4.788 -10.321,4.812 -16.207,0.602c-5.674,-4.068 -10.798,-9.051 -15.593,-14.164c-20.091,-21.42 -30.376,-47.799 -37.249,-75.726c-1.416,-5.75 -4.321,-9.47 -9.074,-12.8c-27.165,-19.035 -54.028,-38.494 -81.223,-57.482c-11.229,-7.841 -23.02,-14.878 -34.556,-22.276Zm-174.419,-563.994c1.222,0.289 2.444,0.572 3.666,0.856c2.828,-6.938 5.716,-13.857 8.49,-20.818c17.902,-44.818 30.796,-91.1 38.005,-138.746c5.686,-37.598 2.385,-75.124 -5.945,-112.172c-1.01,-4.481 -2.763,-8.791 -4.836,-15.268c-4.162,25.423 -7.899,48.248 -11.637,71.056c2.935,0.962 5.721,1.877 9.612,3.152c-5.178,6.831 -9.612,12.606 -13.951,18.439c-1.376,1.842 -3.094,3.702 -3.678,5.827c-6.955,25.24 -19.301,47.965 -33.093,69.893c-19.737,31.38 -38.459,63.599 -60.653,93.172c-18.981,25.299 -34.798,51.98 -48.921,79.995c-14.955,29.662 -20.328,61.792 -24.921,94.164c-1.069,7.487 -2.12,14.985 -3.454,24.485c12.399,-10.693 22.105,-20.57 27.035,-33.86c4.351,-11.738 7.539,-23.9 11.46,-35.797c1.387,-4.204 3.43,-8.183 5.172,-12.269c1.121,0.248 2.237,0.496 3.359,0.744c7.191,21.881 -1.553,43.336 -3.802,65.016c12.121,-3.59 14.524,-3.318 21.52,2.622c-16.531,15.964 -36.18,28.829 -47.764,46.784c6.43,6.742 12.133,12.729 17.836,18.716c-0.46,1.139 -0.915,2.278 -1.375,3.418c-6.318,-0 -12.635,-0.059 -18.946,0.018c-5.999,0.065 -13.078,-2.451 -16.839,4.392c-2.468,4.476 -4.156,9.707 -4.835,14.778c-1.695,12.688 -2.976,25.465 -3.596,38.247c-0.159,3.194 2.055,8.325 4.528,9.376c3.319,1.405 8.225,0.484 11.962,-0.827c13.444,-4.723 20.93,-16.035 28.222,-27.247c22.022,-33.884 38.075,-70.725 52.918,-108.14c0.98,-2.473 0.945,-5.644 0.496,-8.342c-1.966,-11.832 -4.44,-23.581 -6.394,-35.413c-2.917,-17.665 -3.419,-35.844 -12.759,-51.997c-3.631,-6.276 -7.274,-11.478 -16.602,-8.372c0.891,-3.856 0.874,-7.315 2.462,-9.707c2.125,-3.211 5.213,-7.214 8.449,-7.799c2.408,-0.443 6.158,3.608 8.484,6.353c2.131,2.503 3.147,5.945 5.396,10.456c4.08,-20.133 14.719,-37.379 6.495,-57.925c11.17,1.748 7.155,11.844 12.286,18.35c6.424,-14.642 12.381,-28.222 18.279,-41.683c5.06,7.817 3.554,17.146 -0.283,26.055c-4.033,9.334 -8.88,18.344 -13.834,27.241c-16.401,29.45 -8.566,57.004 6.318,85.763c6.961,-16.732 13.077,-32.254 19.861,-47.481c4.747,-10.674 10.734,-20.853 6.135,-33.198c-0.514,-1.388 -0.266,-3.135 -0.095,-4.682c1.872,-16.845 3.838,-33.677 5.674,-50.521c0.248,-2.285 0.579,-4.913 -0.266,-6.902c-8.62,-20.34 -3.064,-40.066 3.07,-59.874c1.411,7.528 2.238,15.191 1.228,22.607c-1.653,12.092 -1.877,16.041 1.966,22.53c8.107,-19.661 13.42,-39.557 14.808,-60.647c1.269,-19.271 2.834,-38.713 13.402,-55.847c1.34,-2.161 3.118,-4.044 4.694,-6.057c5.237,18.698 -5.627,34.799 -5.609,54.725c5.455,-6.861 9.494,-11.932 14.601,-18.35c0.933,13.857 -1.14,25.293 -10.645,33.594c-5.845,5.101 -8.018,11.029 -9.187,18.102c-1.706,10.303 -3.855,20.529 -5.674,30.814c-2.828,16.059 -5.532,32.136 -8.295,48.201Zm-507.478,2313.75c-11.48,13.901 -14.199,30.652 -15.843,47.837c-1.942,20.263 -3.542,40.591 -6.264,60.759c-1.24,9.24 -7.097,12.062 -15.327,9.027c18.509,-19.459 12.629,-44.074 14.175,-67.017c0.727,-10.722 -1.487,-21.632 -0.938,-32.378c0.346,-6.786 1.357,-12.613 3.179,-18.228l21.018,0Zm-78.125,-83.615c-2.588,3.531 -4.994,7.195 -7.203,11.038c-2.604,4.529 -5.562,8.868 -8.603,13.119c-2.854,3.997 -5.339,8.106 -7.499,12.314l-0,-29.321l19.189,-13.769l4.116,6.619Zm-35.921,83.615c-0.277,3.078 -0.481,6.175 -0.626,9.289c-1.31,28.222 -0.389,56.674 -3.572,84.665c-4.93,43.336 -22.931,81.199 -55.244,111.392c-4.168,3.891 -9.039,7.15 -13.952,10.091c-6.459,3.873 -11.259,3.672 -20.18,-0.496c7.481,-6.572 13.828,-13.527 21.438,-18.569c20.027,-13.284 35.312,-30.807 44.05,-52.717c5.001,-12.541 6.737,-26.935 7.257,-40.603c1.263,-33.452 0.867,-66.97 1.363,-100.452c0.013,-0.867 0.031,-1.733 0.054,-2.6l19.412,0Zm-32.794,-29.378c-26.277,0.422 -49.449,12.322 -62.746,36.371c-9.6,17.346 -18.261,35.218 -27.944,52.517c-10.722,19.141 -23.74,36.363 -43.903,46.801c-11.938,6.182 -17.877,5.621 -27.607,-3.625c5.987,-3.377 11.454,-7.297 17.523,-9.73c25.571,-10.249 41.577,-30.022 54.105,-53.337c8.154,-15.168 15.699,-30.672 24.006,-45.763c14.567,-26.469 36.791,-40.755 66.566,-42.62l-0,19.386Z" style="fill:var(--clr-logo, rgb(0,0,0));"/>
            <path id="Auge" d="M1151.83,833.525c0.596,-0.396 1.187,-0.791 1.783,-1.187c0.272,-3.897 0.543,-7.793 0.927,-13.384c-3.773,3.259 -6.158,5.331 -8.549,7.403c2.338,2.876 4.091,5.025 5.839,7.168m52.824,-22.2c3.926,2.941 6.27,6.058 8.413,5.934c2.244,-0.136 4.298,-3.395 6.436,-5.29c-2.073,-2.185 -3.85,-5.573 -6.3,-6.158c-1.83,-0.437 -4.522,2.757 -8.549,5.514m-10.627,-11.666c-10.657,-0.638 -24.331,4.818 -25.825,12.127c-1.771,8.738 -1.564,18.007 -1.163,26.999c0.124,2.628 3.342,5.946 5.993,7.504c18.267,10.74 36.818,10.616 55.044,-0.106c11.259,-6.636 13.567,-13.113 10.527,-26.551c-2.291,-10.155 -10.049,-16.637 -21.379,-17.877c11.595,11.241 12.676,26.45 2.592,36.582c-7.245,7.279 -24.319,5.727 -32.957,-2.988c-9.358,-9.452 -6.861,-21.874 7.168,-35.69m-56.674,34.97c-7.315,5.904 -14.376,9.175 -24.153,4.694c3.92,-4.842 6.943,-9.783 11.087,-13.462c13.279,-11.772 26.569,-23.598 40.603,-34.432c20.275,-15.634 43.401,-15.717 65.405,-5.993c26.711,11.802 44.405,34.716 62.737,57.264c-13.243,6.158 -21.142,-0.354 -28.15,-10.628c-15.097,24.378 -35.821,37.202 -63.676,37.722c-27.72,0.519 -50.126,-8.656 -63.853,-35.165" style="fill:var(--clr-logo, rgb(0,0,0))"/>
        </g>
        <g id="KVM">
            <path d="M732.649,2663.85l-51.562,0l-56.104,-90.234l-19.189,13.769l-0,76.465l-45.41,0l-0,-214.16l45.41,0l-0,97.998c3.027,-4.199 6.006,-8.398 8.935,-12.598c2.93,-4.199 5.909,-8.398 8.936,-12.597l58.008,-72.803l50.39,0l-74.707,94.775l75.293,119.385Z" style="fill:none;stroke:var(--clr-logo, rgb(0,0,0));stroke-width:16.67px;"/>
            <path d="M936.32,2449.69l-72.803,214.16l-49.511,0l-72.657,-214.16l45.85,0l40.283,127.441c0.684,2.149 1.807,6.177 3.369,12.085c1.563,5.909 3.15,12.159 4.761,18.75c1.611,6.592 2.71,12.037 3.296,16.333c0.586,-4.296 1.636,-9.716 3.149,-16.259c1.514,-6.543 3.028,-12.769 4.541,-18.677c1.514,-5.908 2.613,-9.985 3.296,-12.232l40.576,-127.441l45.85,0Z" style="fill:none;stroke:var(--clr-logo, rgb(0,0,0));stroke-width:16.67px;"/>
            <path d="M1062.65,2663.85l-51.563,-168.017l-1.318,-0c0.195,4.004 0.513,10.034 0.952,18.09c0.44,8.057 0.855,16.626 1.245,25.708c0.391,9.083 0.586,17.286 0.586,24.61l0,99.609l-40.576,0l0,-214.16l61.817,0l50.683,163.77l0.879,-0l53.76,-163.77l61.816,0l0,214.16l-42.334,0l0,-101.367c0,-6.738 0.122,-14.502 0.366,-23.291c0.245,-8.789 0.562,-17.163 0.953,-25.122c0.39,-7.959 0.683,-13.94 0.878,-17.944l-1.318,-0l-55.224,167.724l-41.602,0Z" style="fill:none;stroke:var(--clr-logo, rgb(0,0,0));stroke-width:16.67px;"/>
        </g>
    </g>
</svg>
